<mxfile host="app.diagrams.net" modified="2023-11-25T08:10:11.135Z" agent="Mozilla/5.0 (Windows NT 10.0; Win64; x64) AppleWebKit/537.36 (KHTML, like Gecko) Chrome/117.0.0.0 Safari/537.36" version="22.1.4" etag="R6v_5329hGJT6FjAnwRA" type="github">
  <diagram name="PaginÄƒ-1" id="HD9la-1w4ieyL6I3qe1o">
    <mxGraphModel>
      <root>
        <mxCell id="0" />
        <mxCell id="1" parent="0" />
      </root>
    </mxGraphModel>
  </diagram>
</mxfile>
